<svg xmlns="http://www.w3.org/2000/svg" viewBox="0 0 512 512">
<rect width="512" height="512" fill="#000"/>
<g transform="translate(256,280)" fill="#F5A623">
<rect x="-85" y="-15" width="170" height="120" rx="3"/>
<rect x="-28" y="15" width="22" height="22" rx="2" fill="#000"/>
<rect x="6" y="15" width="22" height="22" rx="2" fill="#000"/>
<rect x="-28" y="47" width="22" height="22" rx="2" fill="#000"/>
<rect x="6" y="47" width="22" height="22" rx="2" fill="#000"/>
<rect x="52" y="-45" width="18" height="33" rx="2"/>
<polygon points="-130,-15 0,-105 130,-15 108,-15 0,-90 -108,-15"/>
<polygon points="-125,-50 0,-135 125,-50 105,-50 0,-120 -105,-50"/>
<polygon points="-105,-85 0,-155 105,-85 88,-85 0,-142 -88,-85"/>
</g>
</svg>
